<?xml version="1.0" encoding="utf-8"?>
<!-- Generator: Adobe Illustrator 18.0.0, SVG Export Plug-In . SVG Version: 6.00 Build 0)  -->
<!DOCTYPE svg PUBLIC "-//W3C//DTD SVG 1.1//EN" "http://www.w3.org/Graphics/SVG/1.1/DTD/svg11.dtd">
<svg version="1.1" xmlns="http://www.w3.org/2000/svg" xmlns:xlink="http://www.w3.org/1999/xlink" x="0px" y="0px"
	 viewBox="0 0 60 60" enable-background="new 0 0 60 60" xml:space="preserve">
<g id="Layer_1">
</g>
<g id="Layer_2">
	<g>
		<g>
			<path fill="#EB4C4E" d="M-15.9,60.1c4.2-3,8.5-5.8,13.2-8c2.2-1,4.5-1.3,6.4-0.3c3.4,1.8,7.4,1.5,10.7,3.2
				c3.3,1.7,6.6,2.4,9.4-0.4c3-2.9,2.6-6.7,1.5-10.4c-0.2-0.7-0.2-1.5-0.3-2.3c0,0,0,0,0-0.1c0-0.2,0-0.3-0.1-0.5c0-0.1-0.2,0-0.3,0
				c-4.4,0-4.3-3.3-5-6.4c-1.4-6.1-1.9-12.3-0.4-18.4C21.2,9.1,26.4,4.5,34,3.3c8-1.3,14.9,1.2,19.9,7.8c4.7,6.3,5.2,13.4,1.1,20
				c-3.3,5.4-6.6,11-12.5,14.3c-2.2,1.3-8.5,0.1-10-2.1c-1.3-1.9,0-3.2,1.1-4.5c2.8-3.3,6.4-5.8,10-8c2.8-1.7,4.6-0.6,5.5,3.2
				c0.1,0.4,0.2,0.9,0.3,1.4c3.4-2.5,3.6-7,7.1-10.3c-2.4,0.6-2-0.4-2-1.1c0.2-7.5-5.1-14.1-13.1-16.2c-8.2-2.2-15.6,0.7-19.3,7.4
				c-0.1-0.3-0.3-0.6-0.8-1.7c0,4.8-2.4,8.4-1.2,12.6c1.4-0.9,2.6-2.1,4.4-2.6c1.2-0.3,2,0,2.5,1.1c2.1,4.6,3.4,9.4,3.6,14.4
				c0.1,2.8-1.8,3.4-4.1,3.4c0,2.6,0.3,5.3,0.1,7.9c-0.3,4.1-3.8,6.6-7.9,7c-3.7,0.4-7-0.3-9.9-2.1c-2.3-1.4-4.4-3.1-7.1-3.2
				c-5.2-0.3-8.7,3.3-12.8,5.5c-1.7,0.9-3,2.3-4.5,3.5C-15.7,60.8-15.8,60.5-15.9,60.1z"/>
		</g>
	</g>
</g>
</svg>
